<svg width="50" height="59" xmlns="http://www.w3.org/2000/svg"><path d="M32.528 5.11c4.663 2.183 7.933 6.33 8.349 11.17H9.123c.417-4.84 3.687-8.987 8.35-11.17L14.542.828c-.174-.255-.131-.59.096-.747.228-.157.553-.08.728.176l3.047 4.449A17.866 17.866 0 0 1 25 3.466c2.35 0 4.58.444 6.589 1.24l3.047-4.45c.173-.254.499-.332.726-.175.228.158.27.492.097.747l-2.932 4.283zm-14.16 6.751c.97 0 1.755-.791 1.755-1.767 0-.976-.786-1.767-1.756-1.767s-1.757.79-1.757 1.767c0 .976.787 1.767 1.757 1.767zm13.265 0c.97 0 1.757-.791 1.757-1.767 0-.976-.786-1.767-1.757-1.767-.97 0-1.756.79-1.756 1.767 0 .976.786 1.767 1.756 1.767zM7.085 36.464c0 1.967-1.586 3.563-3.543 3.563C1.586 40.027 0 38.43 0 36.464V22.05c0-1.967 1.586-3.563 3.542-3.563 1.957 0 3.543 1.596 3.543 3.563v14.413zm2.038-17.865h31.755v26.03c0 1.546-1.247 2.799-2.784 2.799h-3.292v8.009c0 1.968-1.585 3.563-3.542 3.563-1.957 0-3.542-1.595-3.542-3.563v-8.01h-5.436v8.01c0 1.968-1.586 3.563-3.542 3.563-1.956 0-3.542-1.595-3.542-3.563v-8.01h-3.292a2.791 2.791 0 0 1-2.783-2.799v-26.03zm33.793 17.865V22.05c0-1.967 1.585-3.563 3.542-3.563 1.956 0 3.542 1.596 3.542 3.563v14.413c0 1.967-1.586 3.563-3.542 3.563-1.957 0-3.542-1.596-3.542-3.563z" fill="#fff" fill-rule="evenodd" fill-opacity=".3"></path></svg>
                            