<svg width="89" height="35" xmlns="http://www.w3.org/2000/svg"><path d="M10.064 12.68l8.522 5.007c.32.188.514.535.514.913l-.016 13.483a.527.527 0 0 1-.256.454.493.493 0 0 1-.515 0l-5.063-2.961a1.065 1.065 0 0 1-.516-.912v-6.299c0-.375-.195-.723-.514-.91l-2.156-1.268a1.006 1.006 0 0 0-1.028 0L6.88 21.455a1.052 1.052 0 0 0-.514.91v6.3c0 .374-.195.717-.515.91L.787 32.538a.486.486 0 0 1-.511 0 .519.519 0 0 1-.257-.454L0 18.6c0-.378.198-.725.515-.913l8.522-5.007a1 1 0 0 1 .47-.138h.088a.986.986 0 0 1 .47.138zM60.102.067l5.073 2.89c.326.185.528.537.528.918v25.047c0 .375-.197.722-.515.91l-8.526 5.027a1.012 1.012 0 0 1-1.03 0l-8.523-5.027a1.056 1.056 0 0 1-.515-.91V18.874c0-.376.196-.722.515-.91l8.525-5.023a1.01 1.01 0 0 1 1.028 0l2.134 1.255c.112.066.25.066.36 0a.37.37 0 0 0 .18-.319V.525c0-.186.097-.358.255-.453a.506.506 0 0 1 .51-.005zm-.79 25.553v-3.45c0-.094-.05-.18-.13-.228l-2.926-1.726a.253.253 0 0 0-.258 0l-2.927 1.726a.264.264 0 0 0-.128.228v3.45c0 .094.049.181.128.228L56 27.57c.079.047.177.047.256 0l2.927-1.722a.263.263 0 0 0 .13-.228zm20.706-12.814l8.47 5.02c.317.189.512.535.512.91v2.435c0 .374-.195.72-.512.908l-5.104 3.03a.505.505 0 0 1-.516 0 .528.528 0 0 1-.258-.455v-2.477a.527.527 0 0 0-.257-.455l-2.67-1.57a.505.505 0 0 0-.514 0l-2.67 1.57a.527.527 0 0 0-.257.455v3.148c0 .188.099.363.259.456l8.575 5.025c.161.095.26.27.259.46a.527.527 0 0 1-.265.456l-5.122 2.907a1.011 1.011 0 0 1-1.01-.006l-8.468-4.927a1.055 1.055 0 0 1-.52-.913V18.738c0-.376.196-.723.514-.91l8.522-5.024c.32-.188.713-.187 1.032.002zm-.444 8.803l1.636.963a.203.203 0 0 1 .098.175v1.929a.203.203 0 0 1-.098.174l-1.636.964a.194.194 0 0 1-.198 0l-1.634-.964a.203.203 0 0 1-.099-.174v-1.929c0-.072.038-.138.099-.175l1.634-.963a.194.194 0 0 1 .198 0zM33.36 12.857l8.475 4.994c.317.187.512.532.512.905v9.998c0 .373-.195.718-.512.905l-8.475 4.998a1.006 1.006 0 0 1-1.024 0l-8.477-4.998a1.05 1.05 0 0 1-.512-.905v-9.997c0-.374.195-.719.512-.906l8.477-4.994a1.005 1.005 0 0 1 1.024 0z" fill="#fff" fill-rule="evenodd" fill-opacity=".3"></path></svg>
                            