<svg width="36" height="36" xmlns="http://www.w3.org/2000/svg"><path d="M2.824 32.495l1.33-6.513 2.667 8.364c-1.325-.106-2.917-.458-3.997-1.85zm.6-16.211c.951-2.501 2.873-5.31 5.276-7.706 2.448-2.443 5.3-4.44 7.827-5.478 1.243-.511 2.356-.768 3.271-.768.87 0 1.56.231 2.015.694 1.466 1.489.699 4.813-1.645 8.388-.006.006-.012.011-.017.018-.015.02-.024.043-.036.063a27.99 27.99 0 0 1-3.562 4.315c-2.474 2.468-5.317 4.497-7.798 5.564-1.412.608-3.97 1.436-5.233.152-.958-.972-.993-2.883-.097-5.242zM33.603 4.038c.454.76 1.327 2.84.356 6.567l-9.067-6.728 4.884-2.246c1.799.355 3.086 1.164 3.827 2.407zM19.83 31.524l7.282 1.298-11.118.912a28.968 28.968 0 0 0 3.836-2.21zm-12.03.68l-2.684-8.417c.101.005.202.012.306.012 1.139 0 2.467-.32 3.955-.96.232-.1.467-.21.703-.325l-2.28 9.69zm12.697-18.528l3.4 11.221-10.878-4.099a32.624 32.624 0 0 0 4.648-3.858 29.948 29.948 0 0 0 2.83-3.264zm12.447 13.48l-1.447-7.501a32.256 32.256 0 0 0 2.321-4.083l-.874 11.584zm-7.8.059l5.398 4.602-8.921-1.59a50.93 50.93 0 0 0 3.524-3.012zm-5.904 2.784a.766.766 0 0 0-.09.062c-2.895 1.994-6.242 3.6-10.204 4.18l2.87-12.196 11.779 4.438C22.26 27.698 20.817 28.905 19.24 30zm6.238-5.345l-3.624-11.958 11.47-.045c-1.736 4.787-4.832 8.718-7.846 12.003zm4.753-3.208l1.851 9.597-5.788-4.934c1.324-1.426 2.674-2.973 3.937-4.663zM24.133 5.294l7.778 5.77-9.718.039c1.164-2.035 1.894-4.062 1.94-5.81zm-.572-2.555a3.944 3.944 0 0 0-.456-.645l2.223-.168-1.767.813zM1.584 28.31l.76-5.726c.019.02.035.042.055.062.214.217.452.4.708.557l-1.363 6.674c-.086-.472-.142-.99-.16-1.567zm32.492 4.864l1.922-25.47a.797.797 0 0 0-.014-.205c.017-1.455-.24-2.966-1.025-4.282C33.964 1.553 32.295.49 29.998.055a.778.778 0 0 0-.342-.053l-9.729.736c-.013 0-.025.005-.038.006-1.15-.015-2.486.276-3.96.882-2.712 1.115-5.753 3.237-8.343 5.822-2.594 2.586-4.596 5.523-5.639 8.267-.485 1.277-.733 2.452-.751 3.496L.007 28.165a.809.809 0 0 0-.007.127c.2 7.256 5.425 7.62 7.642 7.69a.786.786 0 0 0 .228.015l25.482-2.09c.011 0 .021-.004.032-.005.017-.002.034-.003.05-.006h.004c.003 0 .005-.002.008-.003.009-.001.017-.004.025-.006.018-.004.035-.01.052-.015a.678.678 0 0 0 .08-.029l.016-.007c.012-.005.022-.012.033-.018a.722.722 0 0 0 .054-.03l.03-.019.017-.012.022-.017.046-.04.006-.006c.007-.007.014-.011.02-.018.008-.007.013-.016.02-.023l.024-.024.003-.004.019-.027.027-.034.013-.023.022-.035.016-.033.019-.037a1.528 1.528 0 0 0 .024-.065.755.755 0 0 0 .021-.074l.008-.032.003-.012c.002-.008 0-.016.002-.024.002-.014.005-.027.006-.041l.002-.013z" fill="#fff" fill-rule="evenodd" fill-opacity=".3"></path></svg>