<svg width="46" height="64" xmlns="http://www.w3.org/2000/svg"><path d="M14.543 48.842c-9.734 2.628 5.921 8.056 18.314 2.925-2.03-.763-3.483-1.643-3.483-1.643-5.528 1.01-8.092 1.09-13.11.537-4.14-.46-1.72-1.819-1.72-1.819zm17.32-5.135c-7.408 1.39-11.69 1.345-17.111.8-4.193-.422-1.448-2.402-1.448-2.402-10.849 3.508 6.036 7.486 21.196 3.167-1.611-.553-2.636-1.565-2.636-1.565zm4.28-30.233c-12.85 7.86-10.476 10.14-7.381 14.729 3.314 4.92-3.902 8.85-3.902 8.85s3.589-3.106.747-6.557c-9.634-11.709 10.536-17.022 10.536-17.022zm5.298 41.075s1.739 1.427-1.914 2.53c-6.946 2.097-28.91 2.73-35.01.084-2.194-.95 1.92-2.27 3.213-2.546 1.35-.292 2.12-.237 2.12-.237-2.439-1.712-15.765 3.36-6.769 4.813 24.535 3.964 44.724-1.785 38.36-4.644zm-8.138-15.675c-11.468 2.786-33.62 1.49-27.243-1.36 5.393-2.41 9.779-2.136 9.779-2.136s-11.293 2.478-4 3.378c3.08.381 9.22.295 14.938-.148 4.673-.364 9.366-1.139 9.366-1.139s-1.648.652-2.84 1.405zm3.074 7.99c-.054.139-.234.294-.234.294 15.541-3.946 9.828-13.908 2.398-11.386-.652.224-.994.74-.994.74s.41-.16 1.33-.344c3.756-.756 9.136 4.856-2.5 10.696zM23.232 35.368c-6.039-5.512-10.47-10.364-7.497-14.88 4.363-6.63 16.452-9.844 13.78-20.488 0 0 6.621 6.7-6.28 17.005-10.344 8.266-2.358 12.979-.003 18.363zm13.47 26.038c-9.553 2.04-21.334 1.801-28.322.494 0 0 1.43 1.343 8.786 1.878 11.192.813 28.378-.45 28.785-6.459 0 0-.783 2.278-9.25 4.087z" fill="#fff" fill-rule="evenodd" fill-opacity=".3"></path></svg>
                            