<svg width="52" height="46" xmlns="http://www.w3.org/2000/svg"><path d="M39.223 42.817c-6.125 3.493-14.547 3.852-23.02.267C9.342 40.203 3.65 35.16 0 29.397c1.752 1.44 3.796 2.594 5.985 3.6 8.75 4.05 17.499 3.772 23.656.01a.065.065 0 0 1-.01-.01C20.873 26.37 13.43 17.724 7.883 10.664 6.715 9.51 5.838 8.07 4.963 6.773c6.714 6.051 17.37 13.688 21.164 15.85C18.1 14.265 10.95 3.891 11.24 4.178 23.938 16.86 35.762 24.064 35.762 24.064c.391.218.694.4.936.561.256-.643.48-1.31.669-2.002 2.045-7.349-.291-15.707-5.4-22.623 11.822 7.061 18.83 20.317 15.91 31.413-.077.3-.159.595-.25.885.036.04.07.082.103.126 5.84 7.203 4.233 14.841 3.503 13.4-3.167-6.118-9.03-4.248-12.01-3.007" fill="#fff" fill-rule="evenodd" fill-opacity=".3"></path></svg>
                            